<?xml version="1.0" standalone="no"?>
<!DOCTYPE svg PUBLIC "-//W3C//DTD SVG 20010904//EN"
 "http://www.w3.org/TR/2001/REC-SVG-20010904/DTD/svg10.dtd">
<svg version="1.0" xmlns="http://www.w3.org/2000/svg"
 width="777.000000pt" height="187.000000pt" viewBox="0 0 777.000000 187.000000"
 preserveAspectRatio="xMidYMid meet">
<metadata>
Created by potrace 1.15, written by Peter Selinger 2001-2017
</metadata>
<g transform="translate(0.000000,187.000000) scale(0.100000,-0.100000)"
fill="#000000" stroke="none">
<path d="M7380 1633 c-92 -10 -337 -66 -412 -93 -88 -33 -486 -137 -553 -146
-22 -3 -65 -11 -95 -18 -30 -8 -84 -19 -120 -25 -36 -7 -81 -16 -100 -21 -19
-5 -105 -23 -190 -40 -284 -57 -560 -129 -671 -176 -141 -60 -178 -92 -234
-209 -24 -51 -49 -96 -54 -100 -6 -3 -21 1 -34 10 -21 13 -29 13 -73 0 -27 -8
-107 -47 -179 -85 -188 -101 -265 -139 -304 -146 -33 -7 -34 -7 -27 22 13 53
69 131 196 269 180 198 224 271 196 327 -10 19 -19 23 -57 22 -49 -2 -93 -22
-256 -115 -94 -55 -161 -88 -223 -110 -24 -9 -24 -8 -5 7 67 51 161 115 235
157 90 51 120 78 120 108 0 40 -33 41 -137 5 -210 -72 -282 -106 -759 -363
-253 -136 -677 -337 -744 -352 -25 -6 -64 -11 -87 -11 -53 0 -55 14 -14 85 60
102 182 225 323 327 34 23 105 75 159 115 54 40 130 93 169 119 76 51 95 83
66 112 -20 20 -44 14 -206 -54 -103 -43 -122 -48 -183 -46 -93 2 -129 -12
-482 -183 -223 -109 -439 -252 -655 -435 -68 -58 -93 -72 -59 -34 41 46 59 77
59 101 0 54 -55 41 -202 -46 -181 -107 -708 -381 -708 -367 0 6 180 138 405
297 168 119 511 366 633 456 69 51 80 109 25 132 -24 10 -50 5 -173 -29 -80
-22 -194 -55 -255 -74 -60 -19 -111 -34 -112 -32 -2 2 27 28 65 59 119 96 352
362 373 425 14 43 4 80 -26 94 -21 9 -37 5 -111 -31 -152 -73 -317 -189 -535
-377 -228 -196 -765 -597 -1024 -764 -114 -74 -240 -138 -250 -128 -8 7 37 94
84 162 27 40 86 130 131 201 100 158 142 212 330 425 209 238 435 450 479 450
22 0 121 79 121 96 0 20 -24 28 -49 15 -39 -21 -226 -174 -330 -270 -92 -85
-218 -219 -388 -414 -54 -62 -130 -170 -307 -437 -122 -184 -127 -194 -136
-242 -9 -49 14 -73 62 -65 34 6 330 195 515 329 152 110 568 423 653 492 41
33 123 102 181 153 147 128 275 222 382 281 99 54 147 72 147 53 0 -17 -44
-100 -74 -141 -97 -129 -333 -343 -478 -433 -41 -25 -48 -35 -46 -56 5 -41 38
-37 130 13 157 85 578 211 578 173 0 -33 -340 -291 -785 -596 -285 -195 -375
-265 -375 -290 0 -24 20 -41 49 -41 13 0 128 56 255 124 127 68 274 145 326
171 52 26 138 73 190 105 161 97 168 98 100 12 -35 -44 -204 -196 -443 -400
-66 -56 -76 -74 -57 -97 21 -25 47 -17 107 35 62 53 308 257 459 380 50 41
138 113 195 160 124 101 343 249 454 307 44 22 156 76 249 118 147 68 170 76
178 61 24 -43 43 -40 191 27 152 69 203 88 177 65 -8 -7 -104 -80 -213 -162
-208 -156 -278 -224 -387 -375 -66 -92 -78 -142 -42 -174 24 -22 96 -22 159
-1 55 18 589 281 763 375 409 222 602 315 720 349 45 13 44 12 -180 -148 -175
-124 -195 -142 -198 -170 -6 -62 57 -62 153 -1 122 78 497 279 520 279 18 0
18 1 -1 -46 -24 -58 -62 -109 -169 -224 -107 -116 -208 -253 -226 -307 -6 -19
-8 -44 -5 -57 5 -22 43 -46 73 -46 23 0 115 49 213 112 124 81 205 119 303
142 20 5 27 3 27 -9 0 -24 38 -55 68 -55 39 0 62 28 117 143 42 89 52 103 108
144 122 89 270 150 532 218 124 32 361 75 490 90 74 8 308 68 520 134 163 50
476 140 504 146 113 20 163 26 196 23 38 -3 28 -9 -205 -125 -135 -67 -342
-180 -460 -251 -118 -71 -280 -166 -360 -212 -181 -104 -379 -235 -516 -341
-83 -64 -104 -86 -102 -103 4 -31 41 -32 96 0 435 251 527 284 793 284 166 0
214 -14 303 -90 74 -62 111 -79 195 -92 67 -10 113 -4 265 32 47 12 49 12 77
-19 24 -27 35 -31 79 -31 70 0 112 23 108 58 -3 26 -5 27 -52 24 -44 -2 -53 1
-77 28 -34 37 -43 37 -144 3 -63 -21 -99 -27 -170 -27 -104 1 -133 11 -224 78
-91 67 -163 86 -320 86 -133 0 -279 -18 -371 -46 -30 -9 -103 -40 -162 -70
-59 -30 -111 -54 -115 -54 -13 1 222 151 377 242 80 47 240 143 355 213 178
108 532 296 600 318 86 28 141 56 158 79 19 25 19 28 3 52 -17 27 -44 30 -146
19z"/>
</g>
</svg>
